<svg width="37" height="37" viewBox="0 0 37 37" fill="none" xmlns="http://www.w3.org/2000/svg">
<path fill-rule="evenodd" clip-rule="evenodd" d="M3.69938 18.5C-0.364189 11.7191 -1.28097 5.1943 1.95667 1.95667C5.1943 -1.28097 11.7191 -0.364189 18.5 3.69938C25.2809 -0.364189 31.8057 -1.28097 35.0433 1.95667C38.281 5.1943 37.3642 11.7191 33.3006 18.5C37.3642 25.2809 38.281 31.8057 35.0433 35.0433C31.8057 38.281 25.2809 37.3642 18.5 33.3006C11.7191 37.3642 5.1943 38.281 1.95667 35.0433C-1.28097 31.8057 -0.364189 25.2809 3.69938 18.5ZM10.9841 5.97068C7.08568 4.67397 5.80549 5.59075 5.69812 5.69812C5.59075 5.80549 4.67397 7.08568 5.97068 10.9841C6.25149 11.843 6.63142 12.7515 7.09394 13.6931C8.05201 12.5203 9.1092 11.364 10.2325 10.2325C11.3557 9.10094 12.5203 8.05201 13.6931 7.09394C12.7515 6.63142 11.843 6.25975 10.9841 5.97068ZM5.69812 31.3101C5.59075 31.2028 4.67397 29.9226 5.97068 26.0242C6.25975 25.1652 6.63142 24.2567 7.09394 23.3069C8.05201 24.4797 9.10094 25.6443 10.2325 26.7675C11.364 27.8908 12.5203 28.948 13.6931 29.9061C12.7515 30.3686 11.843 30.7485 10.9841 31.0293C7.08568 32.326 5.80549 31.4093 5.69812 31.3019V31.3101ZM13.9657 13.9657C12.4707 15.4606 11.1658 16.9886 10.0508 18.5C11.1658 20.0114 12.4707 21.5394 13.9657 23.0343C15.4606 24.5293 16.9886 25.8342 18.5 26.9492C20.0114 25.8342 21.5394 24.5293 23.0343 23.0343C24.5293 21.5394 25.8342 20.0114 26.9492 18.5C25.8342 16.9886 24.5293 15.4606 23.0343 13.9657C21.5394 12.4707 20.0114 11.1658 18.5 10.0508C16.9886 11.1658 15.4606 12.4707 13.9657 13.9657ZM23.3069 7.09394C24.2485 6.63142 25.157 6.25149 26.0242 5.97068C29.9226 4.67397 31.2028 5.59075 31.3101 5.69812C31.4175 5.80549 32.3343 7.08568 31.0376 10.9841C30.7485 11.843 30.3768 12.7515 29.9143 13.6931C28.9562 12.5203 27.9073 11.3557 26.7758 10.2325C25.6443 9.1092 24.488 8.05201 23.3152 7.09394H23.3069ZM26.7675 26.7675C25.6443 27.8991 24.4797 28.948 23.3069 29.9061L23.2986 29.9143C24.2485 30.3768 25.157 30.7485 26.0159 31.0376C29.9143 32.3343 31.1945 31.4175 31.3019 31.3101C31.4093 31.2028 32.326 29.9226 31.0293 26.0242C30.7485 25.157 30.3686 24.2485 29.9061 23.3069C28.948 24.4797 27.8908 25.636 26.7675 26.7675Z" fill="#BCAAA4"/>
<path d="M16.4443 17.9861C16.4443 16.5671 17.5947 15.4167 19.0138 15.4167C20.4328 15.4167 21.5832 16.5671 21.5832 17.9861C21.5832 19.4052 20.4328 20.5556 19.0138 20.5556C17.5947 20.5556 16.4443 19.4052 16.4443 17.9861Z" fill="#EF9A9A"/>
</svg>
