<svg width="37" height="37" viewBox="0 0 37 37" fill="none" xmlns="http://www.w3.org/2000/svg">
<path fill-rule="evenodd" clip-rule="evenodd" d="M0.227529 31.8667C0.00348252 31.5604 -0.0615631 31.1521 0.0613009 30.7875C0.184165 30.4229 0.480484 30.1458 0.849076 30.0438L10.8661 27.2875C8.09805 25.6615 2.30899 21.024 2.30899 12.5C2.30899 7.84062 3.37863 4.47187 4.17363 2.80208C4.42659 2.28437 4.96141 2 5.53236 2C6.34905 2 7.03564 2.58333 7.28137 3.37083C7.99687 5.77708 9.26887 7.72396 10.8155 9.27708C14.5882 13.076 20.0086 14.5708 23.1236 14.8333V12.3979V10.1667C23.1236 6.94375 25.711 4.33333 28.9054 4.33333H36.111C36.6025 4.33333 37 4.73438 37 5.23021C37 5.40521 36.9422 5.58021 36.8482 5.72604L34.6873 9V20.6667C34.6873 27.1125 29.5125 32.3333 23.1236 32.3333H17.7465L12.2827 36.7448C12.0803 36.9125 11.8201 37 11.5599 37C5.58295 37 1.56458 33.6604 0.227529 31.8667ZM28.9054 11.3333C29.5441 11.3333 30.0618 10.811 30.0618 10.1667C30.0618 9.52233 29.5441 9 28.9054 9C28.2668 9 27.7491 9.52233 27.7491 10.1667C27.7491 10.811 28.2668 11.3333 28.9054 11.3333Z" fill="#E0E0E0"/>
<path d="M15.1972 0.473895C14.0211 1.88484 12.1761 4.86755 11.0141 9.37817C11.007 9.39279 11.007 9.41472 11 9.42935C14.6831 13.2382 19.9648 14.7368 23 15V12.5583C20.338 9.98495 18.1127 6.41008 17.9718 1.84097C17.9437 1.01488 17.4437 0.269199 16.6761 0.0571929C16.1408 -0.0890185 15.5634 0.0425718 15.1972 0.481206V0.473895Z" fill="#A1887F"/>
</svg>
