<svg width="37" height="37" viewBox="0 0 37 37" fill="none" xmlns="http://www.w3.org/2000/svg">
<path d="M0 18.5C0 28.7184 8.35014 37 18.653 37C27.7974 37 35.4043 30.4744 37 21.8676C35.142 21.2533 33.2767 20.6391 31.4187 20.0248C30.7192 19.7936 30.1727 19.2516 29.9468 18.565C29.5169 17.2932 29.087 16.0213 28.6644 14.7422C28.2783 13.6004 28.8466 12.3574 29.9614 11.8877C31.6664 11.165 33.3714 10.4352 35.0764 9.7125C31.9141 3.92402 25.7426 0 18.653 0C18.296 0 17.9462 0.00722656 17.5892 0.0289063C18.2741 1.28633 18.959 2.54375 19.6367 3.8084C20.0957 4.64668 19.9791 5.6873 19.3525 6.40996C18.959 6.86523 18.5729 7.31328 18.1794 7.76855C17.4362 8.62852 17.4289 9.88594 18.1575 10.7531C18.4854 11.1434 18.8133 11.5336 19.1485 11.9311C19.5419 12.4008 19.5784 13.0729 19.2359 13.5787C18.8862 14.099 18.2304 14.3158 17.6402 14.1207L15.9571 13.5643C15.447 13.398 14.886 13.4342 14.4051 13.6727C14.2594 13.7449 14.1136 13.8172 13.9752 13.8895C13.3194 14.2146 13.0061 14.9734 13.232 15.66C13.3486 15.9996 13.5817 16.2887 13.9023 16.4693C14.7403 16.9463 15.5782 17.4232 16.4161 17.893C17.1229 18.2904 17.9171 18.5 18.7332 18.5C19.7824 18.5 20.8243 18.5 21.8736 18.5C22.7989 18.5 23.6879 18.8686 24.3436 19.5189C24.4384 19.6129 24.5331 19.7068 24.6278 19.8008C25.2836 20.4512 25.6552 21.3328 25.6552 22.2506V22.8504C25.6552 24.0934 24.9848 25.2424 23.8919 25.8639L23.3017 26.1963C22.2015 26.825 21.4 27.8656 21.0939 29.0869C21.0284 29.3543 20.9555 29.6289 20.8899 29.8963C20.5912 31.0742 19.6877 31.9992 18.5073 32.3389C17.4143 32.6496 16.3287 31.833 16.3287 30.7057C16.3287 29.7662 16.3287 28.8268 16.3287 27.8873C16.3287 27.8223 16.3287 27.7789 16.3214 27.7428C16.3214 27.6922 16.3141 27.6488 16.3068 27.5982C16.2922 27.5043 16.2704 27.4031 16.2485 27.3164C16.1975 27.1285 16.1174 26.9551 16.0154 26.7961C15.8113 26.4709 15.5199 26.2035 15.1629 26.0229C14.4488 25.6688 13.997 24.9461 13.997 24.1512C13.997 23.19 13.997 22.2289 13.997 21.2678C13.997 21.2605 13.997 21.2533 13.997 21.2461C13.997 21.2244 13.997 21.1883 13.997 21.1521C13.997 21.1088 13.9898 21.0727 13.9898 21.0365C13.9825 20.957 13.9752 20.8775 13.9606 20.798C13.9315 20.6391 13.895 20.4945 13.844 20.3428C13.742 20.0465 13.5963 19.7791 13.4141 19.5334C13.0425 19.042 12.5106 18.6734 11.8913 18.4928L7.49035 17.2498C6.42655 16.9463 5.50847 16.2814 4.88913 15.3709L1.74143 10.6809C0.626625 13.0584 0 15.7105 0 18.5Z" fill="#5364B5"/>
<path fill-rule="evenodd" clip-rule="evenodd" d="M1.94727 10.8917C4.73424 4.75127 10.6386 0.399018 17.5701 0L19.5885 3.86456C20.041 4.7291 19.9261 5.78576 19.3084 6.52468L18.1519 7.91386C17.4193 8.78578 17.4121 10.0789 18.1304 10.9656L19.1073 12.17C19.4951 12.6503 19.531 13.3375 19.1934 13.8548C18.8559 14.3794 18.2094 14.6085 17.6204 14.409L15.954 13.84C15.4511 13.6627 14.8981 13.707 14.424 13.9509L14.0002 14.1725C13.3466 14.505 13.0377 15.2735 13.2675 15.9829C13.3825 16.3302 13.6195 16.6257 13.9284 16.8105L16.4065 18.2662C17.1032 18.6726 17.8933 18.8869 18.6906 18.8869H21.7865C22.6987 18.8869 23.575 19.2637 24.2215 19.9287L24.5016 20.2169C25.1481 20.8819 25.5144 21.7834 25.5144 22.7219V23.3352C25.5144 24.6061 24.8536 25.7884 23.7761 26.4165L23.1943 26.7564C22.1097 27.3918 21.3196 28.4633 21.0179 29.7121L20.8168 30.5397C20.5223 31.7441 19.6244 32.6973 18.468 33.0372C17.3905 33.3549 16.3203 32.52 16.3203 31.3672V28.4854C16.3203 27.6726 15.8749 26.9337 15.171 26.5716C14.4671 26.2096 14.0217 25.4706 14.0217 24.6578V21.7095C14.0217 20.3869 13.1742 19.2268 11.9387 18.8647L7.6074 17.5863C6.5587 17.2834 5.64647 16.5962 5.0431 15.6651L1.94727 10.8917ZM34.7993 9.89535L34.8019 9.89417L34.7947 9.88678C34.7962 9.88963 34.7977 9.89249 34.7993 9.89535ZM34.7993 9.89535L29.7595 12.1183C28.6605 12.606 28.1074 13.8696 28.481 15.0371L29.7452 18.946C29.975 19.6553 30.5137 20.2095 31.1961 20.4386L36.6982 22.3228C36.8993 21.2071 36.9999 20.0543 36.9999 18.8795C36.9999 15.6317 36.2043 12.5682 34.7993 9.89535Z" fill="#7CB342"/>
</svg>
