<svg width="33" height="37" viewBox="0 0 33 37" fill="none" xmlns="http://www.w3.org/2000/svg">
<path d="M4.625 3.46875L9.61133 2.22578C12.3646 1.53925 15.2697 1.85722 17.8135 3.1291C21.1594 4.80566 25.0979 4.80566 28.4438 3.1291L29.1375 2.78222C30.6262 2.03066 32.375 3.11464 32.375 4.77675V22.6769C32.375 23.6381 31.7752 24.5053 30.8719 24.8449L28.3643 25.7844C26.9117 26.3336 25.3797 26.601 23.8621 26.601C21.8893 26.601 19.9236 26.1457 18.1242 25.2496C15.3854 23.8766 12.249 23.5369 9.27168 24.2812L4.625 25.4375V3.46875Z" fill="#FFCA27"/>
<path d="M2.3125 0C3.5916 0 4.625 1.0334 4.625 2.3125V34.6875C4.625 35.9666 3.5916 37 2.3125 37C1.0334 37 0 35.9666 0 34.6875V2.3125C0 1.0334 1.0334 0 2.3125 0Z" fill="#4050B5"/>
<path d="M12.7743 14.8975L17.5563 19.422C17.7548 19.6097 18.0168 19.7143 18.2894 19.7143C18.562 19.7143 18.8239 19.6097 19.0224 19.422L23.8044 14.8975C24.6089 14.1385 25.0641 13.0738 25.0641 11.9608V11.8053C25.0641 9.93057 23.7277 8.33212 21.9043 8.02371C20.6976 7.81988 19.4697 8.21949 18.6069 9.0938L18.2894 9.41563L17.9718 9.0938C17.1091 8.21949 15.8812 7.81988 14.6744 8.02371C12.8511 8.33212 11.5146 9.93057 11.5146 11.8053V11.9608C11.5146 13.0738 11.9698 14.1385 12.7743 14.8975Z" fill="#B5322A"/>
</svg>
