<svg width="42" height="37" viewBox="0 0 42 37" fill="none" xmlns="http://www.w3.org/2000/svg">
<path fill-rule="evenodd" clip-rule="evenodd" d="M4.54239 32.3906L4.53516 19.6067L20.7493 5.49033L36.9707 19.6139C36.9743 21.7394 36.9798 23.865 36.9852 25.9914C36.9906 28.1233 36.996 30.256 36.9997 32.3906C36.9997 34.933 34.9295 37 32.3671 37H9.17501C6.61983 37 4.54239 34.933 4.54239 32.3906ZM17.0794 18.5551C14.6256 18.5551 12.6422 20.5357 12.6422 22.9701H12.6567C12.6567 24.1369 13.12 25.2604 13.9524 26.0887L19.9386 32.0449C20.3874 32.4914 21.1257 32.4914 21.5745 32.0449L27.5607 26.0887C28.3859 25.2604 28.8564 24.1369 28.8564 22.9701C28.8564 20.5285 26.8658 18.5551 24.4192 18.5551C23.2466 18.5551 22.1174 19.0161 21.285 19.8443L20.7493 20.3773L20.2137 19.8443C19.3812 19.0233 18.252 18.5551 17.0794 18.5551Z" fill="#FFCA27"/>
<path fill-rule="evenodd" clip-rule="evenodd" d="M19.2449 0.570761C20.1174 -0.190254 21.4152 -0.190254 22.2877 0.570761L40.7461 16.8057C41.7051 17.6537 41.806 19.1178 40.9624 20.0817C40.1188 21.0457 38.6623 21.1399 37.7034 20.2992L20.7663 5.39777L3.8292 20.2992C2.87022 21.1399 1.40652 21.0457 0.570125 20.0817C-0.266275 19.1178 -0.17254 17.6465 0.786435 16.8057L19.2449 0.570761ZM13.9814 26.1336C13.1594 25.3001 12.6907 24.1695 12.6907 22.9953H12.6763C12.6763 20.5383 14.6591 18.5524 17.0962 18.5524C18.2643 18.5524 19.3891 19.0163 20.2183 19.8498L20.7519 20.3861L21.2854 19.8498C22.1146 19.0236 23.2394 18.5524 24.4075 18.5524C26.8518 18.5524 28.8274 20.5456 28.8274 22.9953C28.8274 24.1695 28.366 25.3001 27.5368 26.1336L21.5738 32.1275C21.1268 32.5769 20.3913 32.5769 19.9443 32.1275L13.9814 26.1336Z" fill="#4050B5"/>
<path d="M14.0961 26.6669L20.0998 32.3473C20.349 32.583 20.6779 32.7143 21.0201 32.7143C21.3624 32.7143 21.6913 32.583 21.9405 32.3473L27.9441 26.6669C28.9542 25.7141 29.5256 24.3773 29.5256 22.98V22.7847C29.5256 20.4311 27.8478 18.4243 25.5586 18.0371C24.0436 17.7812 22.502 18.2829 21.4188 19.3805L21.0201 19.7846L20.6214 19.3805C19.5383 18.2829 17.9967 17.7812 16.4816 18.0371C14.1925 18.4243 12.5146 20.4311 12.5146 22.7847V22.98C12.5146 24.3773 13.0861 25.7141 14.0961 26.6669Z" fill="#B5322A"/>
</svg>
