<svg width="37" height="33" viewBox="0 0 37 33" fill="none" xmlns="http://www.w3.org/2000/svg">
<path d="M0 26.2969V30.4073C0 31.5441 0.918417 32.4625 2.0552 32.4625H12.3312H22.6393C24.5018 32.4625 26.3194 31.8652 27.8223 30.7605L35.9531 24.7684C36.6339 24.2674 37 23.4839 37 22.7003C37 22.1737 36.8394 21.6342 36.499 21.1782C35.6577 20.035 34.0521 19.7909 32.9089 20.6323L25.2147 26.2969H17.4692C16.904 26.2969 16.4416 25.8345 16.4416 25.2693C16.4416 24.7041 16.904 24.2417 17.4692 24.2417H18.4968H22.6072C23.744 24.2417 24.6624 23.3233 24.6624 22.1865C24.6624 21.0497 23.744 20.1313 22.6072 20.1313H18.4968H17.4692H12.4404C10.5714 20.1313 8.76028 20.7671 7.30238 21.9296L4.41868 24.2417H2.0552C0.918417 24.2417 0 25.1601 0 26.2969Z" fill="#795548"/>
<path d="M10.5265 1.43543C8.6383 3.34933 8.6383 6.45782 10.5265 8.37172L17.0518 14.9997C17.45 15.4044 17.9702 15.6035 18.4968 15.6035C19.0235 15.6035 19.5437 15.4044 19.9419 14.9997L26.4671 8.37172C28.3554 6.45782 28.3554 3.34933 26.4671 1.43543C24.5789 -0.478476 21.5218 -0.478476 19.6336 1.43543L18.4968 2.59148L17.36 1.43543C15.4718 -0.478476 12.4147 -0.478476 10.5265 1.43543Z" fill="#E57373"/>
</svg>
