<svg width="37" height="30" viewBox="0 0 37 30" fill="none" xmlns="http://www.w3.org/2000/svg">
<path d="M19.4277 13.0806V19.9151C19.4277 23.2688 21.6828 26.2003 24.9208 27.0676L34.6753 29.6696C34.8314 29.7101 34.9933 29.7332 35.1494 29.7332C35.5542 29.7332 35.9473 29.6002 36.2769 29.3516C36.7337 28.9989 36.9997 28.4611 36.9997 27.8829V22.3321C36.9997 21.5341 36.4909 20.8287 35.7334 20.5743L31.1539 19.0478C30.7781 18.9206 30.5237 18.5679 30.5237 18.1689V13.919C30.5237 13.0054 30.2519 12.115 29.7489 11.3518L22.8276 0.967013C22.5559 0.55648 22.1511 0.284719 21.7059 0.18064C21.5671 0.145948 21.4226 0.128601 21.278 0.128601C21.145 0.128601 21.0178 0.140165 20.8848 0.169076C20.6825 0.215333 20.4859 0.290501 20.3066 0.406144C19.873 0.672123 19.5896 1.09422 19.4798 1.55679C19.4162 1.82277 19.4104 2.10031 19.474 2.37207C19.5145 2.5571 19.5839 2.73635 19.6821 2.90981L24.6779 11.6524C24.8803 11.9994 24.9844 12.3983 24.9844 12.7973V17.7063C24.9844 18.2152 24.5681 18.6315 24.0592 18.6315C23.5504 18.6315 23.1341 18.2152 23.1341 17.7063V13.0806C23.1341 12.0572 22.3072 11.2303 21.2838 11.2303C20.2604 11.2303 19.4335 12.0572 19.4335 13.0806H19.4277Z" fill="#795548"/>
<path d="M16.1206 0.169072C16.323 0.215329 16.5196 0.290497 16.6989 0.40614C17.1325 0.672119 17.4158 1.09422 17.5257 1.55679C17.5893 1.82277 17.5951 2.10031 17.5315 2.37207C17.491 2.5571 17.4216 2.73635 17.3233 2.90981L12.3333 11.6524C12.131 11.9993 12.0269 12.3983 12.0269 12.7973V17.7063C12.0269 18.2152 12.4432 18.6315 12.952 18.6315C13.4609 18.6315 13.8772 18.2152 13.8772 17.7063V13.0806C13.8772 12.0572 14.704 11.2303 15.7275 11.2303C16.7509 11.2303 17.5777 12.0572 17.5777 13.0806V19.9151C17.5777 23.2688 15.3227 26.2003 12.0847 27.0676L2.33021 29.6696C1.77512 29.8199 1.17956 29.6985 0.728551 29.3516C0.277543 29.0046 0 28.4553 0 27.8829V22.332C0 21.5341 0.50883 20.8287 1.26629 20.5743L5.84576 19.0478C6.2216 18.9206 6.47601 18.5679 6.47601 18.1689V13.919C6.47601 13.0054 6.74777 12.115 7.25082 11.3517L14.1778 0.967008C14.4438 0.556476 14.8544 0.284715 15.2996 0.180636C15.5656 0.117032 15.8431 0.11125 16.1149 0.174854L16.1206 0.169072Z" fill="#A1887F"/>
</svg>
