<svg width="37" height="32" viewBox="0 0 37 32" fill="none" xmlns="http://www.w3.org/2000/svg">
<path d="M18.5 3.89144V8.79827V27.9776V31.6414C19.2443 31.6414 19.9598 31.3596 20.5018 30.8537L33.5602 18.6625C35.757 16.6174 37 13.7485 37 10.7494V10.3303C37 5.27894 33.3506 0.971905 28.3715 0.14085C27.8078 0.046905 27.2369 0.00354566 26.6732 0.00354566C23.9561 -0.0036809 21.3184 1.07308 19.3672 3.02425L18.5 3.89144Z" fill="#E57373"/>
<path d="M18.5 3.89144L17.6328 3.02425V3.02425C15.277 0.668392 11.9238 -0.408366 8.62852 0.140853C3.64941 0.971908 0 5.27894 0 10.3303V10.7494C0 13.7485 1.24297 16.6174 3.43984 18.6625L16.4982 30.8537C17.0402 31.3596 17.7557 31.6414 18.5 31.6414V27.9776V8.79827V3.89144Z" fill="#EF9A9A"/>
</svg>
