<svg width="37" height="31" viewBox="0 0 37 31" fill="none" xmlns="http://www.w3.org/2000/svg">
<path fill-rule="evenodd" clip-rule="evenodd" d="M0 2.20903C0 0.987159 0.987159 0 2.20903 0H6.62708C7.84895 0 8.83611 0.987159 8.83611 2.20903V12.2946V12.6605V16.1121C11.0443 14.8493 13.2526 13.5881 15.4608 12.327L15.4629 12.3258L15.4666 12.3237C17.6745 11.0628 19.8824 9.80191 22.0903 8.53927V12.2946V12.6605V16.1121C24.2993 14.8488 26.5083 13.5872 28.7173 12.3257C30.9264 11.0641 33.1354 9.80256 35.3444 8.53927V18.7767V27.6128C35.3444 29.4422 33.8602 30.9264 32.0309 30.9264H3.31354C1.48419 30.9264 0 29.4422 0 27.6128V22.0903V18.7767V2.20903ZM14.9109 23.747C14.9109 24.3545 15.408 24.8516 16.0154 24.8516H19.329C19.9365 24.8516 20.4335 24.3545 20.4335 23.747V20.4335C20.4335 19.826 19.9365 19.329 19.329 19.329H16.0154C15.408 19.329 14.9109 19.826 14.9109 20.4335V23.747ZM24.8516 24.8516C24.2441 24.8516 23.747 24.3545 23.747 23.747V20.4335C23.747 19.826 24.2441 19.329 24.8516 19.329H28.1651C28.7726 19.329 29.2696 19.826 29.2696 20.4335V23.747C29.2696 24.3545 28.7726 24.8516 28.1651 24.8516H24.8516Z" fill="#BDBDBD"/>
<path fill-rule="evenodd" clip-rule="evenodd" d="M22.9121 8.06294C23.706 7.60732 23.9821 6.59946 23.5265 5.80559C23.0709 5.01172 22.063 4.73559 21.2692 5.1912L8.83648 12.2946V16.1121L22.9121 8.06294ZM36.1663 8.06294C36.9601 7.60732 37.2363 6.59946 36.7807 5.80559C36.3251 5.01172 35.3172 4.73559 34.5233 5.1912L22.0906 12.2946V16.1121L36.1663 8.06294ZM6.0752 20.4335C6.0752 19.826 6.57223 19.329 7.17971 19.329H10.4932C11.1007 19.329 11.5978 19.826 11.5978 20.4335V23.747C11.5978 24.3545 11.1007 24.8515 10.4932 24.8515H7.17971C6.57223 24.8515 6.0752 24.3545 6.0752 23.747V20.4335ZM16.0158 19.329C15.4083 19.329 14.9113 19.826 14.9113 20.4335V23.747C14.9113 24.3545 15.4083 24.8515 16.0158 24.8515H19.3294C19.9368 24.8515 20.4339 24.3545 20.4339 23.747V20.4335C20.4339 19.826 19.9368 19.329 19.3294 19.329H16.0158ZM23.7474 23.747V20.4335C23.7474 19.826 24.2444 19.329 24.8519 19.329H28.1655C28.7729 19.329 29.27 19.826 29.27 20.4335V23.747C29.27 24.3545 28.7729 24.8515 28.1655 24.8515H24.8519C24.2444 24.8515 23.7474 24.3545 23.7474 23.747Z" fill="#4050B5"/>
</svg>
