<svg width="37" height="37" viewBox="0 0 37 37" fill="none" xmlns="http://www.w3.org/2000/svg">
<path fill-rule="evenodd" clip-rule="evenodd" d="M9.25 4.625V1.73438C9.25 0.773242 10.0232 0 10.9844 0C11.9455 0 12.7188 0.773242 12.7188 1.73438V4.625H9.25ZM1.73438 12.7188C0.773242 12.7188 0 11.9455 0 10.9844C0 10.0232 0.773242 9.25 1.73438 9.25H4.625V12.7188H1.73438ZM1.73438 20.2344C0.773242 20.2344 0 19.4611 0 18.5C0 17.5389 0.773242 16.7656 1.73438 16.7656H4.625V20.2344H1.73438ZM0 26.0156C0 26.9768 0.773242 27.75 1.73438 27.75H4.625V24.2812H1.73438C0.773242 24.2812 0 25.0545 0 26.0156ZM9.25 32.375V35.2656C9.25 36.2268 10.0232 37 10.9844 37C11.9455 37 12.7188 36.2268 12.7188 35.2656V32.375H9.25ZM16.7656 4.625V1.73438C16.7656 0.773242 17.5389 0 18.5 0C19.4611 0 20.2344 0.773242 20.2344 1.73438V4.625H16.7656ZM16.7656 32.375V35.2656C16.7656 36.2268 17.5389 37 18.5 37C19.4611 37 20.2344 36.2268 20.2344 35.2656V32.375H16.7656ZM24.2812 4.625V1.73438C24.2812 0.773242 25.0545 0 26.0156 0C26.9768 0 27.75 0.773242 27.75 1.73438V4.625H24.2812ZM24.2812 32.375V35.2656C24.2812 36.2268 25.0545 37 26.0156 37C26.9768 37 27.75 36.2268 27.75 35.2656V32.375H24.2812ZM35.2656 12.7188H32.375V9.25H35.2656C36.2268 9.25 37 10.0232 37 10.9844C37 11.9455 36.2268 12.7188 35.2656 12.7188ZM32.375 20.2344H35.2656C36.2268 20.2344 37 19.4611 37 18.5C37 17.5389 36.2268 16.7656 35.2656 16.7656H32.375V20.2344ZM35.2656 27.75H32.375V24.2812H35.2656C36.2268 24.2812 37 25.0545 37 26.0156C37 26.9768 36.2268 27.75 35.2656 27.75Z" fill="#9E9E9E"/>
<path fill-rule="evenodd" clip-rule="evenodd" d="M4.44043 9.12667C4.44043 6.54168 6.54211 4.44 9.1271 4.44H27.8738C30.4588 4.44 32.5604 6.54168 32.5604 9.12667V27.8733C32.5604 30.4583 30.4588 32.56 27.8738 32.56H9.1271C6.54211 32.56 4.44043 30.4583 4.44043 27.8733V9.12667ZM19.1375 20.3747L16.0619 13.3447V13.3373C15.8715 12.9126 15.4541 12.6343 14.9854 12.6343C14.5168 12.6343 14.092 12.9126 13.909 13.3373L10.8333 20.3673L9.80813 22.7107C9.5445 23.3038 9.81545 23.9922 10.4086 24.2558C11.0018 24.5194 11.6974 24.2485 11.9537 23.6553L12.6714 22.015H17.2921L18.0171 23.6627C18.2807 24.2485 18.9691 24.5268 19.5623 24.2631C20.1554 23.9995 20.419 23.3112 20.1627 22.718L19.1375 20.3747ZM14.9854 16.7352L13.7039 19.6717H16.2743L14.9854 16.7352ZM25.5304 23.1867V13.8133C25.5304 13.1689 25.0032 12.6417 24.3588 12.6417C23.7143 12.6417 23.1871 13.1689 23.1871 13.8133V23.1867C23.1871 23.8311 23.7143 24.3583 24.3588 24.3583C25.0032 24.3583 25.5304 23.8311 25.5304 23.1867Z" fill="#4050B5"/>
</svg>
