<svg width="37" height="29" viewBox="0 0 37 29" fill="none" xmlns="http://www.w3.org/2000/svg">
<path d="M13.25 14.375C13.25 17.7565 15.5434 20.5 18.375 20.5C21.2066 20.5 23.5 17.7565 23.5 14.375C23.5 10.9935 21.2066 8.25 18.375 8.25C15.5434 8.25 13.25 10.9935 13.25 14.375Z" fill="#795548"/>
<path fill-rule="evenodd" clip-rule="evenodd" d="M0 25.0483V5.16815C0 3.63447 1.64444 2.62057 3.1283 3.02485C8.24792 4.42377 13.374 3.12111 18.5 1.81844C24.0885 0.393847 29.6771 -1.03074 35.2656 1.04197C36.3512 1.44625 37 2.53715 37 3.69223V23.5788C37 25.1124 35.3491 26.1263 33.8717 25.7221C28.7642 24.3264 23.6503 25.626 18.5364 26.9256L18.5 26.9349C12.9115 28.3595 7.32292 29.7841 1.73438 27.6985C0.648785 27.2942 0 26.2033 0 25.0483ZM13.3611 14.3767C13.3611 17.7777 15.6608 20.5371 18.5 20.5371C21.3392 20.5371 23.6389 17.7777 23.6389 14.3767C23.6389 10.9756 21.3392 8.21627 18.5 8.21627C15.6608 8.21627 13.3611 10.9756 13.3611 14.3767Z" fill="#7CB342"/>
</svg>
