<svg width="28" height="37" viewBox="0 0 28 37" fill="none" xmlns="http://www.w3.org/2000/svg">
<path d="M2.33008 15.3474C2.33008 15.5918 2.49581 15.79 2.70044 15.79C2.90506 15.79 3.0708 15.5918 3.0708 15.3474C3.0708 15.103 2.90506 14.9048 2.70044 14.9048C2.49581 14.9048 2.33008 15.103 2.33008 15.3474Z" fill="#33691E"/>
<path fill-rule="evenodd" clip-rule="evenodd" d="M1.37305 16.1187V14.6821C1.37305 14.5712 1.49188 14.498 1.59912 14.5272C1.96909 14.6283 2.33952 14.5341 2.70996 14.44C3.11382 14.3371 3.51768 14.2341 3.92154 14.3839C3.99999 14.4131 4.04688 14.4919 4.04688 14.5754V16.0125C4.04688 16.1234 3.92757 16.1966 3.82081 16.1674C3.45171 16.0666 3.08215 16.1605 2.71259 16.2544L2.70996 16.2551C2.3061 16.358 1.90224 16.461 1.49838 16.3102C1.41993 16.281 1.37305 16.2022 1.37305 16.1187ZM2.3386 15.3475C2.3386 15.5933 2.50478 15.7927 2.70996 15.7927C2.91514 15.7927 3.08133 15.5933 3.08133 15.3475C3.08133 15.1018 2.91514 14.9023 2.70996 14.9023C2.50478 14.9023 2.3386 15.1018 2.3386 15.3475Z" fill="#7CB342"/>
<path fill-rule="evenodd" clip-rule="evenodd" d="M4.625 0C2.07402 0 0 2.07402 0 4.625V32.375C0 34.926 2.07402 37 4.625 37H23.125C25.676 37 27.75 34.926 27.75 32.375V11.5625H18.5C17.2209 11.5625 16.1875 10.5291 16.1875 9.25V0H4.625ZM7.0748 24.9027C6.25098 24.0717 5.78125 22.9443 5.78125 21.7736C5.78125 19.3238 7.76133 17.3438 10.1967 17.3438C11.3674 17.3438 12.4947 17.8062 13.3258 18.6373L13.8605 19.1721L14.3953 18.6373C15.2264 17.8135 16.3537 17.3438 17.5244 17.3438C19.9742 17.3438 21.9543 19.3311 21.9543 21.7736C21.9543 22.9443 21.4918 24.0717 20.6607 24.9027L14.6844 30.8791C14.4604 31.1031 14.1641 31.2188 13.8678 31.2188C13.5715 31.2188 13.2752 31.1031 13.0512 30.8791L7.0748 24.9027Z" fill="#FFCA27"/>
<path fill-rule="evenodd" clip-rule="evenodd" d="M18.5 11.5625H27.75L16.1875 0V9.25C16.1875 10.5291 17.2209 11.5625 18.5 11.5625ZM10.2111 17.3438C7.76133 17.3438 5.78125 19.3311 5.78125 21.7736C5.78125 22.9443 6.25098 24.0717 7.0748 24.9027L13.0656 30.8791C13.5137 31.3271 14.2508 31.3271 14.6988 30.8791L20.6752 24.9027C21.499 24.0717 21.9688 22.9443 21.9688 21.7736C21.9688 19.3238 19.9814 17.3438 17.5389 17.3438C16.3682 17.3438 15.2408 17.8062 14.4098 18.6373L13.875 19.1721L13.3402 18.6373C12.5092 17.8135 11.3818 17.3438 10.2111 17.3438Z" fill="#B5322A"/>
</svg>
