<svg width="33" height="37" viewBox="0 0 33 37" fill="none" xmlns="http://www.w3.org/2000/svg">
<path d="M21.7188 24.1554C22.1306 24.047 22.528 23.8519 22.8893 23.5846C23.1783 23.3678 23.424 23.1149 23.6191 22.8403L32.1671 35.1818C32.3043 35.3841 32.3694 35.6153 32.3694 35.8393C32.3694 36.2078 32.196 36.5691 31.8708 36.7931C31.3433 37.1544 30.628 37.0243 30.2595 36.504L21.7188 24.1554Z" fill="#4050B5"/>
<path fill-rule="evenodd" clip-rule="evenodd" d="M6.93553 3.46832C6.93553 2.22921 7.59658 1.08422 8.66968 0.464667C9.74279 -0.154889 11.0649 -0.154889 12.138 0.464667C13.2111 1.08422 13.8722 2.22921 13.8722 3.46832C13.8722 5.38382 12.3193 6.93664 10.4038 6.93664C8.48834 6.93664 6.93553 5.38382 6.93553 3.46832ZM3.59004 13.0857C4.76783 10.7301 7.16675 9.24885 9.79689 9.24885H11.5599C13.7421 9.24885 15.8014 10.2749 17.1093 12.0235L22.6586 19.4226C23.4245 20.4414 23.2149 21.8938 22.1961 22.6597C21.1773 23.4256 19.7249 23.2161 18.959 22.1972L13.8722 15.4123V22.1611L17.4778 25.7667C18.1281 26.417 18.4966 27.2986 18.4966 28.2162V34.676C18.4966 35.9549 17.4633 36.9882 16.1844 36.9882C14.9054 36.9882 13.8722 35.9549 13.8722 34.676V28.7003L8.28672 23.1221C7.41964 22.255 6.93553 21.0773 6.93553 19.8489V16.7274L4.37764 21.8432C3.80681 22.9848 2.41949 23.4473 1.27783 22.8764C0.136177 22.3056 -0.326265 20.9183 0.244562 19.7766L3.59004 13.0857ZM6.96443 25.0586L4.69557 34.1196L4.7028 34.1268C4.39209 35.3624 5.15079 36.6197 6.38638 36.9304C7.62196 37.2411 8.87923 36.4824 9.18993 35.2468L10.7796 28.8737L6.96443 25.0586Z" fill="#A1887F"/>
</svg>
