<svg width="35" height="37" viewBox="0 0 35 37" fill="none" xmlns="http://www.w3.org/2000/svg">
<path d="M0 10.151C0.0354583 17.381 2.92886 30.5693 15.1478 36.564C16.3321 37.1453 17.7079 37.1453 18.8922 36.564C31.1111 30.5693 34.0045 17.381 34.04 10.1728C34.04 8.25452 32.877 6.69226 31.3239 6.0165L17.9703 0.210723C17.6724 0.072663 17.3533 0 17.02 0C16.6867 0 16.3676 0.072663 16.0697 0.210723L2.71611 6.0165C1.16303 6.69226 0 8.25452 0 10.151Z" fill="#EF9A9A"/>
<path d="M13.3391 11.84C10.8803 11.84 8.87988 13.7414 8.87988 16.0938C8.87988 17.218 9.35272 18.3005 10.182 19.0985L16.1979 24.8373C16.6489 25.2676 17.3909 25.2676 17.8419 24.8373L23.8578 19.0985C24.6943 18.3005 25.1599 17.218 25.1599 16.0938C25.1599 13.7483 23.1667 11.84 20.7007 11.84C19.5223 11.84 18.3875 12.2911 17.5509 13.0821L17.0126 13.5956L16.4743 13.0821C15.6378 12.2841 14.503 11.84 13.3245 11.84H13.3391Z" fill="#B5322A"/>
</svg>
