<svg width="37" height="37" viewBox="0 0 37 37" fill="none" xmlns="http://www.w3.org/2000/svg">
<path d="M0 20.868C0 24.7083 3.10742 27.824 6.9375 27.824H16.1875V11.5933C16.1875 10.3108 17.2209 9.27467 18.5 9.27467C19.7791 9.27467 20.8125 10.3108 20.8125 11.5933V27.824H30.0625C33.8926 27.824 37 24.7083 37 20.868C37 17.9914 35.2584 15.5206 32.7725 14.4627C33.2566 13.6149 33.5312 12.6367 33.5312 11.5933C33.5312 8.39067 30.9441 5.79667 27.75 5.79667C26.9189 5.79667 26.124 5.97057 25.4086 6.28938C25.0762 2.76066 22.1061 0 18.5 0C14.8939 0 11.9238 2.76066 11.5914 6.28938C10.876 5.97057 10.0811 5.79667 9.25 5.79667C6.05586 5.79667 3.46875 8.39067 3.46875 11.5933C3.46875 12.6367 3.74336 13.6149 4.22754 14.4627C1.7416 15.5206 0 17.9914 0 20.868Z" fill="#7CB342"/>
<path d="M0 20.868C0 24.7083 3.10742 27.824 6.9375 27.824H16.1875V11.5933C16.1875 10.3108 17.2209 9.27467 18.5 9.27467C19.7791 9.27467 20.8125 10.3108 20.8125 11.5933V27.824H30.0625C33.8926 27.824 37 24.7083 37 20.868C37 17.9914 35.2584 15.5206 32.7725 14.4627C33.2566 13.6149 33.5312 12.6367 33.5312 11.5933C33.5312 8.39067 30.9441 5.79667 27.75 5.79667C26.9189 5.79667 26.124 5.97057 25.4086 6.28938C25.0762 2.76066 22.1061 0 18.5 0C14.8939 0 11.9238 2.76066 11.5914 6.28938C10.876 5.97057 10.0811 5.79667 9.25 5.79667C6.05586 5.79667 3.46875 8.39067 3.46875 11.5933C3.46875 12.6367 3.74336 13.6149 4.22754 14.4627C1.7416 15.5206 0 17.9914 0 20.868Z" fill="#7CB342"/>
<path d="M18.5743 9.17599C19.8431 9.17599 20.8683 10.2121 20.8683 11.4947V34.6813C20.8683 35.9638 19.8431 37 18.5743 37C17.3054 37 16.2803 35.9638 16.2803 34.6813V11.4947C16.2803 10.2121 17.3054 9.17599 18.5743 9.17599Z" fill="#795548"/>
</svg>
